<svg width="388" height="301" viewBox="0 0 388 301" fill="none" xmlns="http://www.w3.org/2000/svg">
<g filter="url(#filter0_d)">
<path d="M120 120.13C120 117.978 121.744 116.234 123.896 116.234H263.489C266.054 116.234 267.919 118.67 267.249 121.146L253.117 173.435C252.658 175.134 251.117 176.314 249.356 176.314H123.896C121.744 176.314 120 174.57 120 172.419V120.13Z" fill="url(#paint0_linear)"/>
<path d="M120.487 120.13C120.487 118.247 122.013 116.721 123.896 116.721H263.489C265.733 116.721 267.365 118.852 266.779 121.019L252.647 173.308C252.245 174.795 250.896 175.827 249.356 175.827H123.896C122.013 175.827 120.487 174.301 120.487 172.419V120.13Z" stroke="url(#paint1_radial)" stroke-width="0.973915"/>
</g>
<defs>
<filter id="filter0_d" x="0" y="0.233887" width="387.386" height="300.08" filterUnits="userSpaceOnUse" color-interpolation-filters="sRGB">
<feFlood flood-opacity="0" result="BackgroundImageFix"/>
<feColorMatrix in="SourceAlpha" type="matrix" values="0 0 0 0 0 0 0 0 0 0 0 0 0 0 0 0 0 0 127 0"/>
<feOffset dy="4"/>
<feGaussianBlur stdDeviation="60"/>
<feColorMatrix type="matrix" values="0 0 0 0 0 0 0 0 0 0 0 0 0 0 0 0 0 0 0.25 0"/>
<feBlend mode="normal" in2="BackgroundImageFix" result="effect1_dropShadow"/>
<feBlend mode="normal" in="SourceGraphic" in2="effect1_dropShadow" result="shape"/>
</filter>
<linearGradient id="paint0_linear" x1="194.288" y1="116.234" x2="194.288" y2="176.314" gradientUnits="userSpaceOnUse">
<stop stop-color="#79BA78"/>
<stop offset="1" stop-color="#659C64"/>
</linearGradient>
<radialGradient id="paint1_radial" cx="0" cy="0" r="1" gradientUnits="userSpaceOnUse" gradientTransform="translate(192.305 145.48) rotate(90) scale(45.3025 89.6217)">
<stop stop-color="white"/>
<stop offset="1" stop-color="white" stop-opacity="0"/>
</radialGradient>
</defs>
</svg>
