<svg width="34" height="32" viewBox="0 0 34 32" fill="none" xmlns="http://www.w3.org/2000/svg">
<path d="M33.456 31.9884C31.3788 31.9397 29.3511 31.9397 27.274 31.9884C26.8289 31.9884 26.7299 31.8911 26.7299 31.4529C26.7299 27.8501 26.7299 24.1987 26.7299 20.596C26.7299 19.7683 26.6805 18.9407 26.4332 18.1617C25.6914 15.63 22.724 14.705 20.5974 16.409C19.4599 17.2854 19.0148 18.5025 19.0148 19.9631C19.0148 23.3711 19.0148 26.7791 19.0148 30.1871C19.0148 30.6252 18.9653 31.0634 19.0148 31.5503C19.0642 31.9397 18.8664 32.0371 18.5202 31.9884C16.3936 31.9884 14.3165 31.9884 12.1898 31.9884C11.7942 31.9884 11.6953 31.8911 11.6953 31.5016C11.7447 28.4344 11.7447 25.3672 11.7447 22.2513C11.7447 18.4538 11.7447 14.6563 11.6953 10.9075C11.6953 10.4694 11.7942 10.372 12.1898 10.372C14.3165 10.372 16.3936 10.372 18.5202 10.372C18.9159 10.372 19.0148 10.4694 19.0148 10.8588C19.0148 11.6378 19.0148 12.4168 19.0148 13.3418C19.1632 13.1958 19.2126 13.1471 19.2621 13.0984C21.1909 10.3233 23.9109 9.54433 27.1256 10.0312C30.8348 10.6154 33.2087 13.1471 33.8022 17.0419C33.9505 17.967 34 18.892 34 19.817C34 23.7119 34 27.558 34 31.4529C34 31.8424 33.9011 31.9884 33.456 31.9884Z" fill="white"/>
<path d="M7.73879 21.1802C7.73879 24.5882 7.73879 27.9962 7.73879 31.4042C7.73879 31.8424 7.63987 31.9884 7.19477 31.9884C5.11761 31.9397 3.04045 31.9884 0.963294 31.9884C0.567645 31.9884 0.468733 31.8911 0.468733 31.5016C0.468733 24.6369 0.468733 17.7235 0.468733 10.8588C0.468733 10.518 0.567645 10.372 0.963294 10.372C3.08991 10.372 5.21652 10.372 7.34314 10.372C7.78824 10.372 7.8377 10.518 7.8377 10.9075C7.73879 14.3155 7.73879 17.7235 7.73879 21.1802Z" fill="white"/>
<path d="M8.08498 4.72444C7.59042 6.67187 5.56272 7.79164 3.23828 7.40215C0.765469 7.01267 -0.619304 4.62707 0.270907 2.29016C0.864381 0.829585 2.29861 -0.0467576 4.12849 0.00192806C6.89803 -0.0467576 8.72791 2.1441 8.08498 4.72444Z" fill="white"/>
</svg>
