<svg width="72" height="22" viewBox="0 0 72 22" fill="none" xmlns="http://www.w3.org/2000/svg">
<path fill-rule="evenodd" clip-rule="evenodd" d="M4.23065 20.4493C3.81097 20.7437 1.49496 20.9142 1.13745 20.6663C0.888753 20.4958 0.919841 20.2479 0.919841 20C0.919841 15.7387 0.919841 11.4774 0.904297 7.2161C0.904297 6.62727 1.18408 6.54979 1.6504 6.61177C2.89389 6.76673 3.70217 7.47953 4.23065 8.70368C5.17882 7.61899 6.2047 6.81322 7.63473 6.64276C9.46888 6.44132 11.0543 6.78222 12.0958 8.48674C12.3911 8.9671 12.6087 8.79665 12.904 8.44025C14.303 6.73574 16.1371 6.31736 18.22 6.70475C19.8365 6.99916 20.8158 8.00637 21.2821 9.54044C21.5153 10.3462 21.6241 11.1675 21.6241 11.9887C21.6241 14.592 21.6085 17.2107 21.6396 19.814C21.6552 20.5423 21.3909 20.7592 20.6759 20.7592C18.2355 20.7592 18.2355 20.7902 18.2355 18.3574C18.2355 16.5444 18.2511 14.7315 18.22 12.934C18.22 12.3606 18.1423 11.7718 18.0335 11.1985C17.8625 10.2842 17.3651 9.64891 16.3858 9.44746C15.36 9.23053 14.505 9.49395 13.8367 10.3152C13.1838 11.121 12.9662 12.0662 12.9662 13.0579C12.9507 15.3048 12.9351 17.5362 12.9662 19.783C12.9818 20.4803 12.7642 20.7592 12.0181 20.7592C9.57769 20.7747 9.57769 20.7902 9.57769 18.3729C9.57769 16.281 9.60878 14.2046 9.5466 12.1127C9.48443 10.1913 8.27202 9.07557 6.62438 9.40098C5.20991 9.6799 4.65033 10.7336 4.43272 12.0197C4.2462 12.4226 4.29283 12.8565 4.29283 13.2749C4.26174 15.6922 4.2462 18.0785 4.23065 20.4493Z" fill="white"/>
<path fill-rule="evenodd" clip-rule="evenodd" d="M56.271 15.0414C55.1052 15.0414 53.9395 15.0569 52.7581 15.0414C52.0276 15.0259 51.9654 15.3358 52.1519 15.9556C52.5405 17.2882 53.5509 17.7841 54.7477 18.0785C55.7581 18.3264 56.784 18.218 57.7788 17.9545C58.4627 17.7686 58.758 18.3264 59.1155 18.7293C60.0481 19.814 59.7839 20.6818 58.385 20.8677C57.0793 21.0382 55.8047 21.3636 54.4524 21.2861C50.9084 21.1001 48.6701 18.8223 48.3593 15.3668C48.1883 13.3678 48.2038 11.3844 49.3074 9.61792C50.8307 7.18511 52.9913 6.23988 55.9757 6.5033C58.2295 6.70475 59.6906 7.94439 60.6388 9.83485C61.2605 11.0745 61.4004 12.4846 61.1984 13.8637C61.0896 14.5455 60.5611 15.0259 59.7683 15.0259C58.6181 15.0259 57.4523 15.0259 56.271 15.0414C56.271 15.0259 56.271 15.0259 56.271 15.0414ZM54.8099 12.2677C55.5715 12.2677 56.3487 12.2522 57.1104 12.2677C57.5922 12.2677 57.7321 12.0972 57.6389 11.6013C57.4057 10.2222 56.4731 9.38548 55.0431 9.38548C53.7218 9.38548 52.2452 10.5476 52.0898 11.7253C52.0431 12.1282 52.1986 12.2832 52.6027 12.2832C53.3333 12.2522 54.0638 12.2677 54.8099 12.2677ZM67.1516 13.6158C67.1205 15.5062 66.8874 17.3812 67.1205 19.2872C67.276 20.5268 66.934 20.9607 65.5972 20.9297C63.3279 20.8677 63.3589 20.9297 63.3745 18.6208C63.4056 15.0414 63.3745 11.4464 63.39 7.86692C63.39 7.41754 63.1258 6.67376 63.7009 6.58078C64.3693 6.47231 65.1465 6.47231 65.7993 6.95268C66.2967 7.30907 66.2812 8.2853 66.9495 8.23881C67.4159 8.19232 67.7578 7.52601 68.2397 7.18511C69.2345 6.5033 70.3381 6.93718 71.3795 6.72024C71.6127 6.67376 71.8769 6.98367 71.8924 7.18511C71.9702 8.00638 72.1256 8.84314 71.8147 9.63341C71.5816 10.2067 71.0997 10.3152 70.5091 10.1138C69.4054 9.72638 68.2708 10.2222 67.6024 11.183C67.0428 11.9423 67.1827 12.779 67.1516 13.6158ZM45.064 21.2861C44.178 21.2551 43.7583 20.5888 43.3076 19.9845C42.0019 18.2335 40.7895 16.405 39.3905 14.747C38.7843 14.0187 38.8465 13.4918 39.3439 12.9495C40.8983 11.2914 42.033 9.33899 43.3542 7.52601C43.8516 6.84421 44.5044 6.14691 45.4837 6.36384C46.323 6.54979 46.9448 7.10763 47.0225 8.05286C47.0847 8.75016 46.7738 9.308 46.3852 9.83485C45.5458 10.966 44.7065 12.0817 43.8205 13.1664C43.4319 13.6468 43.4785 13.9722 43.8516 14.4525C44.8619 15.7542 45.779 17.1178 46.7738 18.4194C47.2557 19.0392 47.2712 19.5971 46.8982 20.2634C46.494 20.9917 45.8567 21.2241 45.064 21.2861Z" fill="white"/>
<path fill-rule="evenodd" clip-rule="evenodd" d="M32.1316 21.1156C31.4632 21.1001 30.9192 20.8522 30.6083 20.2479C30.2508 19.5506 30.3752 18.8688 30.8259 18.2644C31.7741 16.9783 32.7223 15.7077 33.7015 14.4525C34.059 14.0032 34.0746 13.6468 33.7015 13.1819C32.6912 11.9113 31.743 10.5941 30.7793 9.27701C30.2975 8.6107 30.2664 7.89791 30.7482 7.2161C31.1679 6.62727 31.7741 6.47231 32.458 6.58078C32.9554 6.65826 33.2819 6.98367 33.5616 7.35556C35.0228 9.29251 36.4528 11.2295 37.9294 13.1664C38.2869 13.6313 38.2869 13.9722 37.9294 14.4525C36.4528 16.374 35.0228 18.3264 33.5772 20.2634C33.2197 20.7592 32.7534 21.0691 32.1316 21.1156ZM27.7017 14.2356C27.7017 16.1106 27.6861 17.9855 27.7172 19.845C27.7327 20.4958 27.5462 20.7747 26.8312 20.7747C24.3131 20.8057 24.3131 20.8212 24.3131 18.3419V8.48674C24.3131 7.2161 25.1525 6.42583 26.2406 6.58078C27.1265 6.70475 27.6706 7.38655 27.6861 8.42476C27.7172 10.3617 27.7017 12.2986 27.7017 14.2356ZM26.054 0.630482C27.0644 0.645978 27.8416 1.45175 27.8105 2.45896C27.7794 3.41969 26.9867 4.20996 26.0385 4.20996C24.9971 4.22546 24.1577 3.38869 24.1732 2.35049C24.2043 1.37427 25.0126 0.614986 26.054 0.630482Z" fill="white"/>
<path fill-rule="evenodd" clip-rule="evenodd" d="M4.23065 20.4493L4.27728 13.3059C4.27728 12.8875 4.23065 12.4536 4.41718 12.0507C4.41718 14.5765 4.41718 17.1023 4.40163 19.6281C4.40163 19.907 4.57261 20.2479 4.23065 20.4493Z" fill="white"/>
</svg>
