<svg width="22" height="30" viewBox="0 0 22 30" fill="none" xmlns="http://www.w3.org/2000/svg">
<path d="M12.6633 0C12.6131 0 0 0.010084 0 0.0302521C0 4.19496 3.35678 7.57311 7.49749 7.59328L12.6834 7.60336C13.6482 7.61345 14.4322 8.4 14.4322 9.37815C14.4322 10.3563 13.6382 11.1529 12.6633 11.1529C12.6231 11.1529 0.080402 11.163 0.080402 11.163V22.4773C0.100503 26.6319 3.46734 30 7.61809 30C7.63819 30 7.68844 18.716 7.68844 18.716C8.82412 18.7261 11.6382 18.7664 12.6533 18.7664C17.8191 18.7664 22 14.5714 22 9.38824C22 4.20504 17.8191 0 12.6633 0Z" fill="white"/>
</svg>
