<svg width="65" height="41" viewBox="0 0 65 41" fill="none" xmlns="http://www.w3.org/2000/svg">
<path fill-rule="evenodd" clip-rule="evenodd" d="M54.1028 10.1688L51.5557 12.7412H47.5548L45.3722 14.9455V12.7412H42.0983V2.08577H54.1028V10.1688ZM40.6427 0.616089L39.9153 3.55565V16.7826H43.1895V18.6201H45.0078L46.8272 16.7826H49.7369L55.557 10.9046V0.616089H40.6427Z" fill="white"/>
<path fill-rule="evenodd" clip-rule="evenodd" d="M46.0996 9.43451H47.5546V5.0247H46.0996V9.43451ZM50.1007 9.43451H51.5557V5.0247H50.1007V9.43451Z" fill="white"/>
<path fill-rule="evenodd" clip-rule="evenodd" d="M63.1963 26.3359L60.6504 23.7646H55.921V20.4574H51.9189V35.5217H55.921V27.8054H59.1943V35.5217H63.1963V26.3359ZM50.4648 23.7646H44.2809L41.7345 26.3359V32.9492L44.2809 35.5217H50.4648V31.4805H45.7354V27.8054H50.4648V23.7646ZM40.2794 23.7646H37.0061V20.4574H33.0041V32.9492L35.5505 35.5217H40.2794V31.4805H37.0061V27.8054H40.2794V23.7646ZM31.5491 20.4574H27.5481V22.2951H31.5491V20.4574ZM31.5491 23.7646H27.5481V35.5215H31.5491V23.7646ZM26.0931 23.7646H22.0918V31.4805H20.6372V23.7646H16.6357V31.4805H15.1812V23.7646H11.1792V35.5217H23.5472L26.0931 32.9492V23.7646ZM9.72414 23.7646H6.45065V20.4574H2.44936V32.9492L4.99562 35.5217H9.72414V31.4805H6.45065V27.8054H9.72414V23.7646ZM64.6502 25.601V36.6233L59.1943 40.2978H55.557V38.4601L53.0107 40.2978H49.7374V38.4601L47.9191 40.2978H42.0988L40.2794 38.4601L39.9153 40.2978H34.8235L32.7412 38.4601L32.6246 40.2978H26.8532L26.6491 38.4601L25.0868 40.2978H16.2715L14.4525 39.5629V40.2978H9.72414L4.26763 36.9902L0.994141 33.6851V18.988H7.90587L11.1792 22.2951H26.0931V18.988H38.4606V22.2951H41.7345V24.1317L43.5539 22.2951H47.1906L50.4648 18.988H57.376V22.2951H61.3775L64.6502 25.601Z" fill="white"/>
</svg>
