<svg width="113" height="23" viewBox="0 0 113 23" fill="none" xmlns="http://www.w3.org/2000/svg">
<path d="M99.419 15.2192C99.2277 15.2192 99.0842 15.1702 98.9408 15.0234C98.7973 14.8766 98.7495 14.7298 98.7495 14.4851C98.7495 14.2894 98.7973 14.1426 98.9408 13.9957C99.0842 13.8489 99.2277 13.8 99.419 13.8C99.6102 13.8 99.7537 13.8489 99.8972 13.9957C100.041 14.1426 100.088 14.2894 100.088 14.4851C100.088 14.7298 100.041 14.8766 99.8972 15.0234C99.7537 15.1702 99.5624 15.2192 99.419 15.2192Z" fill="white"/>
<path d="M105.97 9.34681H104.488V14.3872C104.488 14.6809 104.44 14.8766 104.297 15.0234C104.153 15.1702 104.01 15.2192 103.818 15.2192C103.627 15.2192 103.436 15.1702 103.34 15.0234C103.197 14.8766 103.149 14.6809 103.149 14.3872V9.34681H101.667C101.427 9.34681 101.236 9.29787 101.141 9.2C101.045 9.10213 100.949 8.95532 100.949 8.75957C100.949 8.56383 100.997 8.41702 101.141 8.31915C101.236 8.22128 101.427 8.17234 101.667 8.17234H106.018C106.257 8.17234 106.449 8.22128 106.544 8.31915C106.64 8.41702 106.736 8.56383 106.736 8.75957C106.736 8.95532 106.688 9.05319 106.544 9.2C106.401 9.29787 106.209 9.34681 105.97 9.34681Z" fill="white"/>
<path d="M108.505 9.00426L110.035 13.6532L111.565 9.00426C111.661 8.75957 111.709 8.61277 111.757 8.51489C111.804 8.41702 111.852 8.31915 111.948 8.27021C112.044 8.17234 112.187 8.17234 112.331 8.17234C112.426 8.17234 112.57 8.22128 112.665 8.27021C112.761 8.31915 112.857 8.41702 112.904 8.51489C112.952 8.61277 113 8.71064 113 8.80851C113 8.85745 113 8.95532 112.952 9.05319C112.952 9.15106 112.904 9.2 112.904 9.29787C112.857 9.39574 112.857 9.44468 112.809 9.54255L111.183 14.0447C111.135 14.2404 111.087 14.3872 110.992 14.534C110.944 14.6809 110.848 14.8277 110.8 14.9255C110.705 15.0234 110.609 15.1213 110.513 15.2192C110.37 15.317 110.226 15.317 110.035 15.317C109.844 15.317 109.7 15.2681 109.557 15.2192C109.413 15.1213 109.318 15.0723 109.27 14.9255C109.174 14.8277 109.127 14.6809 109.079 14.534C109.031 14.3872 108.983 14.2404 108.887 14.0447L107.262 9.54255C107.214 9.44468 107.214 9.39574 107.166 9.29787C107.118 9.2 107.118 9.15106 107.07 9.05319C107.07 8.95532 107.022 8.90638 107.022 8.80851C107.022 8.6617 107.07 8.51489 107.214 8.36809C107.357 8.22128 107.501 8.17234 107.692 8.17234C107.931 8.17234 108.074 8.22128 108.17 8.36809C108.314 8.41702 108.409 8.6617 108.505 9.00426Z" fill="white"/>
<path fill-rule="evenodd" clip-rule="evenodd" d="M1.6259 23H20.8498C21.7584 23 22.5235 22.266 22.4757 21.3362V1.66383C22.4757 0.734043 21.7584 0 20.8498 0H1.6259C0.717309 0 0 0.734043 0 1.66383V21.3362C0 22.266 0.717309 23 1.6259 23ZM11.094 9.2C11.2375 8.85745 11.62 8.6617 12.0026 8.80851C12.3373 8.95532 12.5286 9.34681 12.3852 9.7383L9.7072 16.5404C9.56374 16.7851 9.32464 16.9809 9.03771 16.9809C8.70297 16.9809 8.46386 16.7851 8.36822 16.4915L4.87732 6.65532C4.73386 6.26383 4.92514 5.87234 5.30771 5.72553C5.69027 5.57872 6.07284 5.77447 6.2163 6.16596L9.08553 14.2404L11.094 9.2ZM17.2628 6.16596C17.4063 5.77447 17.7889 5.57872 18.1714 5.72553C18.5062 5.87234 18.6975 6.26383 18.6018 6.60638L15.1109 16.4426C14.9675 16.7362 14.7284 16.9319 14.4414 16.9319C14.1545 16.9319 13.8676 16.7851 13.7719 16.4915L12.5764 13.4574C12.433 13.1149 12.5764 12.6745 12.959 12.5277C13.2937 12.3809 13.7241 12.5277 13.8676 12.9191L14.3936 14.2404L17.2628 6.16596Z" fill="white"/>
<path fill-rule="evenodd" clip-rule="evenodd" d="M74.7914 23H94.0152C94.9238 23 95.6411 22.266 95.6411 21.3362V1.66383C95.6411 0.734043 94.9238 0 94.0152 0H74.7914C73.8828 0 73.1655 0.734043 73.1655 1.66383V21.3362C73.1655 22.266 73.8828 23 74.7914 23ZM82.2512 5.23617L89.8068 10.9128C89.9503 11.0106 90.0459 11.2553 90.0938 11.5C90.0938 11.7447 89.9981 11.9404 89.8068 12.0872L82.2512 17.9596C82.1077 18.0574 81.9643 18.1064 81.8208 18.1064C81.6773 18.1064 81.5817 18.0574 81.4861 18.0085C81.247 17.9106 81.1035 17.666 81.1035 17.3723V10.3745C81.1035 9.98298 81.4382 9.64043 81.8208 9.64043C82.2034 9.64043 82.5381 9.98298 82.5381 10.3745V15.9043L88.1809 11.5L81.3904 6.41064C81.1035 6.16596 81.0079 5.72553 81.247 5.38298C81.4861 5.08936 81.9165 4.99149 82.2512 5.23617Z" fill="white"/>
<path fill-rule="evenodd" clip-rule="evenodd" d="M26.0144 23H45.2383C46.1468 23 46.912 22.266 46.8642 21.3362V1.66383C46.8642 0.734043 46.1468 0 45.2383 0H26.0144C25.1058 0 24.3885 0.734043 24.3885 1.66383V21.3362C24.3885 22.266 25.1058 23 26.0144 23ZM35.6267 5.23617C35.9136 5.23617 36.2005 5.38298 36.2962 5.6766L40.4088 15.9532C40.5522 16.2957 40.4088 16.7362 40.0262 16.883C39.9305 16.9319 39.8349 16.9319 39.7393 16.9319C39.4523 16.9319 39.1654 16.7851 39.0698 16.4915L38.3525 14.7298H35.6267C35.1963 14.7298 34.8616 14.3872 34.8616 13.9468C34.8616 13.5064 35.1963 13.1638 35.6267 13.1638H37.7308L35.6267 7.87872L32.1836 16.5404C32.0402 16.883 31.6576 17.0787 31.275 16.9319C30.9403 16.7851 30.749 16.3936 30.8925 16.0021L34.9572 5.6766C35.1007 5.43192 35.3398 5.23617 35.6267 5.23617Z" fill="white"/>
<path fill-rule="evenodd" clip-rule="evenodd" d="M50.4029 23H69.6267C70.5353 23 71.2526 22.266 71.2526 21.3362V1.66383C71.2526 0.734043 70.5353 0 69.6267 0H50.4029C49.4943 0 48.777 0.734043 48.777 1.66383V21.3362C48.777 22.266 49.4943 23 50.4029 23ZM58.1502 8.56383C58.1502 9.2 58.4371 9.88511 60.3499 10.766C61.8802 11.4511 63.4583 12.3809 63.3626 14.2404C63.3626 16.1979 61.6411 17.3723 60.0152 17.3723C58.0546 17.3723 56.0939 16.1979 56.0939 13.6532C56.0939 13.2617 56.4286 12.9191 56.8112 12.9191C57.1938 12.9191 57.5285 13.2617 57.5285 13.6532C57.5285 15.8064 59.4892 15.9532 60.063 15.9532C61.0194 15.9532 62.0237 15.317 62.0237 14.2404C62.0237 13.5064 61.6411 12.9191 59.7283 12.0383C58.3415 11.4021 56.7156 10.4234 56.7156 8.51489C56.7156 7.14468 57.8633 5.62766 59.9195 5.62766C62.0236 5.62766 63.3148 7.34043 63.3148 8.95532C63.3148 9.34681 62.9801 9.68936 62.5975 9.68936C62.2149 9.68936 61.8802 9.34681 61.8802 8.95532C61.8802 8.22128 61.2585 7.09574 59.9195 7.09574C58.5327 7.09574 58.1502 8.07447 58.1502 8.56383Z" fill="white"/>
</svg>
