<svg width="102" height="23" viewBox="0 0 102 23" fill="none" xmlns="http://www.w3.org/2000/svg">
<path fill-rule="evenodd" clip-rule="evenodd" d="M29.396 1.31301C30.7613 1.68065 31.8377 2.75731 32.2053 4.12282C32.8879 6.61752 32.8617 11.817 32.8617 11.817C32.8617 11.817 32.8617 16.9902 32.2053 19.4849C31.8377 20.8504 30.7613 21.9271 29.396 22.2947C26.9018 22.9512 16.925 22.9512 16.925 22.9512C16.925 22.9512 6.97439 22.9512 4.45392 22.2685C3.08867 21.9008 2.01222 20.8242 1.64465 19.4586C0.988281 16.9902 0.988281 11.7907 0.988281 11.7907C0.988281 11.7907 0.988281 6.61752 1.64465 4.12282C2.01222 2.75731 3.11492 1.65439 4.45392 1.28675C6.94813 0.630249 16.925 0.630249 16.925 0.630249C16.925 0.630249 26.9018 0.630249 29.396 1.31301ZM22.0446 11.7907L13.748 16.57V7.01142L22.0446 11.7907Z" fill="white"/>
<path d="M47.2756 20.9555C46.6455 20.5353 46.1991 19.8788 45.9366 18.9597C45.674 18.0669 45.5428 16.8589 45.5428 15.3883V13.3663C45.5428 11.8695 45.7003 10.6616 45.9891 9.74246C46.3042 8.82336 46.7768 8.16686 47.4069 7.7467C48.0632 7.32654 48.9034 7.11646 49.9536 7.11646C50.9775 7.11646 51.8177 7.32654 52.4478 7.7467C53.0779 8.16686 53.5243 8.84962 53.8131 9.74246C54.1019 10.6353 54.2594 11.8433 54.2594 13.3663V15.3883C54.2594 16.8852 54.1281 18.0669 53.8393 18.986C53.5505 19.8788 53.1042 20.5616 52.4741 20.9817C51.8439 21.4019 50.9775 21.612 49.9011 21.612C48.7984 21.5857 47.9057 21.3756 47.2756 20.9555ZM50.82 18.7496C51.0038 18.3032 51.0826 17.5417 51.0826 16.5175V12.1584C51.0826 11.1605 51.0038 10.4252 50.82 9.95254C50.6362 9.47986 50.3474 9.26978 49.9011 9.26978C49.481 9.26978 49.1659 9.50612 49.0084 9.95254C48.8246 10.4252 48.7459 11.1605 48.7459 12.1584V16.5175C48.7459 17.5417 48.8246 18.3032 49.0084 18.7496C49.1659 19.196 49.481 19.4324 49.9273 19.4324C50.3474 19.4324 50.6362 19.2223 50.82 18.7496Z" fill="white"/>
<path d="M95.7421 16.1236C95.7421 17.0165 95.7683 17.6992 95.8208 18.1456C95.8733 18.5921 95.9783 18.9334 96.1621 19.1173C96.3197 19.3273 96.5822 19.4324 96.9498 19.4324C97.4224 19.4324 97.7374 19.2486 97.9212 18.8809C98.105 18.5133 98.1838 17.9093 98.21 17.0427L100.914 17.2003C100.941 17.3316 100.941 17.4891 100.941 17.6992C100.941 18.986 100.599 19.9576 99.8903 20.5878C99.1814 21.2181 98.1838 21.5332 96.8973 21.5332C95.3482 21.5332 94.2718 21.0342 93.6417 20.0626C93.0116 19.091 92.6965 17.5942 92.6965 15.5459V13.1037C92.6965 11.0029 93.0116 9.47986 93.6679 8.50824C94.3243 7.53662 95.427 7.06394 96.976 7.06394C98.0525 7.06394 98.8926 7.27402 99.4702 7.66792C100.048 8.06182 100.442 8.69206 100.678 9.50612C100.914 10.3464 101.019 11.5019 101.019 12.9724V15.3621H95.7421V16.1236ZM96.1359 9.53238C95.9784 9.74246 95.8733 10.0576 95.8208 10.504C95.7683 10.9504 95.7421 11.6332 95.7421 12.5523V13.5502H98.0525V12.5523C98.0525 11.6594 98.0262 10.9767 97.9737 10.504C97.9212 10.0313 97.7899 9.7162 97.6324 9.53238C97.4749 9.34856 97.2123 9.24352 96.8973 9.24352C96.5297 9.21726 96.2934 9.3223 96.1359 9.53238Z" fill="white"/>
<path d="M39.6092 15.152L36.0385 2.20585H39.1628L40.4231 8.06182C40.7381 9.50612 40.9744 10.7403 41.132 11.7645H41.2107C41.3157 11.0292 41.552 9.82124 41.9196 8.08808L43.2323 2.20585H46.3567L42.7335 15.152V21.3494H39.6354V15.152H39.6092Z" fill="white"/>
<path d="M64.42 7.37906V21.3756H61.9521L61.6895 19.6687H61.6107C60.9544 20.9555 59.9304 21.612 58.5914 21.612C57.6725 21.612 56.9899 21.2968 56.5436 20.6929C56.0972 20.0889 55.8872 19.1435 55.8872 17.8305V7.37906H59.0378V17.6467C59.0378 18.2769 59.1165 18.7234 59.2478 18.986C59.3791 19.2486 59.6154 19.3799 59.9304 19.3799C60.193 19.3799 60.4555 19.3011 60.7181 19.1173C60.9806 18.9597 61.1644 18.7496 61.2694 18.487V7.37906H64.42Z" fill="white"/>
<path d="M80.5667 7.37906V21.3756H78.0988L77.8363 19.6687H77.7575C77.1011 20.9555 76.0772 21.612 74.7382 21.612C73.8193 21.612 73.1366 21.2968 72.6903 20.6929C72.244 20.0889 72.0339 19.1435 72.0339 17.8305V7.37906H75.1845V17.6467C75.1845 18.2769 75.2633 18.7234 75.3945 18.986C75.5258 19.2486 75.7621 19.3799 76.0772 19.3799C76.3397 19.3799 76.6023 19.3011 76.8648 19.1173C77.1274 18.9597 77.3111 18.7496 77.4162 18.487V7.37906H80.5667Z" fill="white"/>
<path d="M72.9791 4.75306H69.8548V21.3494H66.783V4.75306H63.6586V2.20585H72.9791V4.75306Z" fill="white"/>
<path d="M90.9899 9.61116C90.8061 8.71832 90.4911 8.08808 90.071 7.69418C89.6509 7.30028 89.0471 7.0902 88.3119 7.0902C87.7343 7.0902 87.183 7.24776 86.6841 7.58914C86.1853 7.90426 85.7915 8.35068 85.5289 8.87588H85.5027V1.49683H82.4571V21.3494H85.0563L85.3714 20.0364H85.4502C85.6864 20.509 86.054 20.8767 86.5529 21.1655C87.0517 21.4281 87.5768 21.5857 88.1807 21.5857C89.2571 21.5857 90.0185 21.0868 90.5173 20.1151C91.0162 19.1435 91.2787 17.5942 91.2787 15.5196V13.3138C91.2525 11.712 91.1737 10.4777 90.9899 9.61116ZM88.1019 15.3096C88.1019 16.3337 88.0494 17.1215 87.9706 17.6992C87.8919 18.2769 87.7343 18.6971 87.5505 18.9334C87.3405 19.1698 87.078 19.3011 86.7629 19.3011C86.5004 19.3011 86.2641 19.2486 86.054 19.1173C85.844 18.986 85.6602 18.8021 85.5289 18.5658V10.6353C85.6339 10.2677 85.8177 9.95254 86.0803 9.68994C86.3428 9.4536 86.6316 9.3223 86.9204 9.3223C87.2355 9.3223 87.498 9.4536 87.6556 9.68994C87.8393 9.95254 87.9444 10.3727 88.0231 10.9504C88.1019 11.5544 88.1281 12.3947 88.1281 13.4714V15.3096H88.1019Z" fill="white"/>
</svg>
