<svg width="27" height="21" viewBox="0 0 27 21" fill="none" xmlns="http://www.w3.org/2000/svg">
<path d="M18 0.560303C17.871 0.560303 17.7412 0.589561 17.6172 0.652501C17.2432 0.838903 17 1.2817 17 1.7707V6.69741H2C0.894999 6.69741 0 7.78072 0 9.11822V11.539C0 12.8765 0.894999 13.9598 2 13.9598H17V18.8889C17 19.3779 17.2432 19.8207 17.6172 20.0071C17.9912 20.1959 18.42 20.0909 18.707 19.7447L25.7773 11.1844C26.1683 10.7111 26.1683 9.94846 25.7773 9.47519L18.707 0.914912C18.516 0.683726 18.26 0.560303 18 0.560303Z" fill="#D79634"/>
</svg>
