<svg height="496pt" viewBox="0 0 496.004 496" width="496pt" xmlns="http://www.w3.org/2000/svg"><path d="m216.003906 344.003906 184-184 88-152-144 80-192 192" fill="#b8cbd9"/><path d="m376 456.007812 80-80 32 32-80 80zm0 0" fill="#976947"/><path d="m320.003906 368.003906 72 72 48-48-72-72" fill="#c18e59"/><path d="m272.003906 416.003906 144-144h-64l-80 80zm0 0" fill="#e4725f"/><path d="m280.003906 344.003906-184-184-88-152 144 80 192 192" fill="#e8eff4"/><path d="m8.003906 408 32-32 79.996094 79.996094-32 32.003906zm0 0" fill="#976947"/><path d="m176.003906 368.003906-72 72-48-48 72-72" fill="#c18e59"/><path d="m224.003906 416.003906-144-144h64l80 80zm0 0" fill="#af4a47"/><path d="m272.003906 424.003906c-1.035156 0-2.074218-.199218-3.066406-.609375-2.984375-1.238281-4.933594-4.160156-4.933594-7.390625v-64c0-2.121094.839844-4.160156 2.34375-5.65625l80-80c1.496094-1.503906 3.535156-2.34375 5.65625-2.34375h64c3.230469 0 6.148438 1.953125 7.390625 4.9375 1.238281 2.992188.550781 6.429688-1.738281 8.71875l-144 144c-1.527344 1.527344-3.574219 2.34375-5.652344 2.34375zm8-68.6875v41.375l116.6875-116.6875h-41.378906zm0 0"/><path d="m408.003906 496.003906c-2.050781 0-4.097656-.785156-5.65625-2.34375l-32-32c-3.128906-3.128906-3.128906-8.183594 0-11.3125l80-80c3.125-3.128906 8.183594-3.128906 11.308594 0l32 32c3.128906 3.128906 3.128906 8.183594 0 11.3125l-80 80c-1.558594 1.558594-3.605469 2.34375-5.652344 2.34375zm-20.691406-40 20.691406 20.6875 68.6875-68.6875-20.6875-20.6875zm0 0"/><path d="m362.339844 325.660156 11.3125-11.3125 72 72-11.3125 11.3125zm0 0"/><path d="m314.339844 373.660156 11.3125-11.3125 72 72-11.3125 11.3125zm0 0"/><path d="m362.335938 410.347656 48-47.996094 11.3125 11.3125-47.996094 48zm0 0"/><path d="m338.339844 386.347656 47.996094-47.996094 11.3125 11.3125-47.996094 48zm0 0"/><path d="m274.347656 349.660156-184-184c-.496094-.496094-.921875-1.046875-1.265625-1.648437l-88-152c-1.808593-3.113281-1.304687-7.046875 1.214844-9.617188 2.519531-2.566406 6.441406-3.132812 9.59375-1.382812l144 80c.648437.359375 1.246094.808593 1.765625 1.335937l192 192-11.308594 11.3125-191.210937-191.207031-117.695313-65.386719 72.960938 126.027344 183.253906 183.253906zm0 0"/><path d="m224.003906 424.003906c-2.082031 0-4.128906-.816406-5.65625-2.34375l-144-144c-2.289062-2.289062-2.976562-5.726562-1.738281-8.71875 1.242187-2.984375 4.160156-4.9375 7.394531-4.9375h64c2.117188 0 4.15625.839844 5.652344 2.34375l80 80c1.503906 1.496094 2.347656 3.535156 2.347656 5.65625v64c0 3.230469-1.953125 6.152344-4.9375 7.390625-.992187.410157-2.03125.609375-3.0625.609375zm-124.691406-144 116.691406 116.6875v-41.375l-75.3125-75.3125zm0 0"/><path d="m88.003906 496.003906c-2.050781 0-4.097656-.785156-5.65625-2.34375l-80-80c-3.128906-3.128906-3.128906-8.183594 0-11.3125l32-32c3.125-3.128906 8.183594-3.128906 11.308594 0l80 80c3.128906 3.128906 3.128906 8.183594 0 11.3125l-32 32c-1.558594 1.558594-3.605469 2.34375-5.652344 2.34375zm-68.691406-88 68.691406 68.6875 20.6875-20.6875-68.6875-68.6875zm0 0"/><path d="m50.34375 386.347656 72-72 11.3125 11.3125-72 72zm0 0"/><path d="m98.339844 434.347656 72-72 11.316406 11.3125-72 72zm0 0"/><path d="m74.339844 373.65625 11.3125-11.3125 48 48-11.3125 11.3125zm0 0"/><path d="m98.339844 349.65625 11.3125-11.3125 48 48-11.3125 11.3125zm0 0"/><path d="m146.34375 274.34375 32-32 11.316406 11.3125-32.003906 32zm0 0"/><path d="m317.65625 253.660156-11.308594-11.3125 87.253906-87.253906 72.960938-126.027344-117.695312 65.386719-95.210938 95.207031-11.308594-11.3125 96-96c.519532-.527344 1.117188-.976562 1.765625-1.335937l144-80c3.160157-1.75 7.074219-1.175781 9.59375 1.382812 2.519531 2.5625 3.015625 6.496094 1.214844 9.617188l-88 152c-.34375.601562-.777344 1.160156-1.265625 1.648437zm0 0"/><path d="m210.34375 338.34375 32-32 11.3125 11.3125-32 32zm0 0"/><path d="m122.34375 133.664062 11.316406-11.3125 183.996094 184-11.3125 11.3125zm0 0"/><path d="m178.34375 306.34375 32-32 11.316406 11.3125-32.003906 32zm0 0"/><path d="m274.34375 210.347656 87.996094-87.996094 11.3125 11.3125-87.996094 87.996094zm0 0"/></svg>