<?xml version="1.0" encoding="utf-8"?>
<!-- Generator: Adobe Illustrator 21.0.2, SVG Export Plug-In . SVG Version: 6.00 Build 0)  -->
<svg version="1.1" id="Слой_1" xmlns="http://www.w3.org/2000/svg" xmlns:xlink="http://www.w3.org/1999/xlink" x="0px" y="0px"
	 viewBox="0 0 36.6 36.6" style="enable-background:new 0 0 36.6 36.6;" xml:space="preserve">
<style type="text/css">
	.st0{fill:#39D365;}
	.st1{fill:#E29B0E;}
	.st2{fill:#F4CA19;}
	.st3{fill:#E6E6E6;}
	.st4{fill:#31474C;}
</style>
<path class="st0" d="M36.6,18.8c0,8-5.2,14.7-12.5,17c-0.6,0.2-1.2,0.3-1.8,0.5c-1.2,0.2-2.3,0.4-3.6,0.4c-1.3,0-2.5-0.1-3.7-0.4
	c-0.6-0.1-1.2-0.3-1.8-0.5c-2.9-0.9-5.5-2.6-7.6-4.8c-0.5-0.6-1-1.2-1.5-1.9c-0.3-0.4-0.5-0.8-0.8-1.2C1.9,25.2,1,22.1,1,18.8
	C1,9,9,1,18.8,1S36.6,9,36.6,18.8z"/>
<path class="st1" d="M10.2,16.8L10,17.3L6.8,27.7l0,0.1l-1,3.1c-0.5-0.6-1-1.2-1.5-1.9c-0.3-0.4-0.5-0.8-0.8-1.2l0-0.1l1.6-5.2
	l1.2-3.7L10.2,16.8z"/>
<path class="st2" d="M10,17.3L6.8,27.7l0,0.1l-1,3.1c-0.5-0.6-1-1.2-1.5-1.9l0.5-1.5l1.6-5.2l1.2-3.7L10,17.3z"/>
<path class="st3" d="M31.8,20.3l-1.9,6c-3-0.9-4.7-0.5-6.5-0.1l0,0C21.7,26.6,20,27,17,26.1l0,0c-3-0.9-4.2-2.3-5.4-3.6
	c-0.7-0.8-1.4-1.6-2.5-2.3c-0.7-0.5-1.6-0.9-2.8-1.3l0,0L11.9,1l0,0c3,0.9,4.2,2.3,5.4,3.6c1.2,1.3,2.4,2.7,5.4,3.6s4.7,0.5,6.5,0.1
	c1.8-0.4,3.5-0.8,6.5,0.1l-1.9,6L31.8,20.3z"/>
<g>
	<path class="st4" d="M33.7,14.4l-1.9,6c-3-0.9-4.7-0.5-6.5-0.1l1.9-6C28.9,13.8,30.7,13.4,33.7,14.4z"/>
	<path class="st4" d="M25.3,20.2l-1.9,6l0,0C21.7,26.6,20,27,17,26.1l1.9-6C21.8,21,23.6,20.6,25.3,20.2L25.3,20.2L25.3,20.2z"/>
	<path class="st4" d="M29.1,8.3l-1.9,6h0c-1.8,0.4-3.5,0.8-6.5-0.1l1.9-6v0C25.6,9.1,27.3,8.7,29.1,8.3z"/>
	<path class="st4" d="M20.7,14.2l-1.9,6l0,0c-3-0.9-4.2-2.3-5.4-3.6v0l1.9-6C16.6,11.9,17.8,13.2,20.7,14.2L20.7,14.2z"/>
	<path class="st4" d="M17.2,4.6L17.2,4.6l-1.9,6C14.2,9.2,13,7.9,10,7l1.9-6C14.8,1.9,16,3.3,17.2,4.6z"/>
	<path class="st4" d="M13.5,16.5L13.5,16.5l-1.9,6c-0.7-0.8-1.4-1.6-2.5-2.3c-0.7-0.5-1.6-0.9-2.8-1.3l0,0l1.9-6h0
		C11.1,13.8,12.3,15.2,13.5,16.5z"/>
</g>
</svg>
