<svg width="50" height="52" viewBox="0 0 50 52" fill="none" xmlns="http://www.w3.org/2000/svg">
<g filter="url(#filter0_d)">
<path d="M5.95238 0C2.68398 0 0 2.68398 0 5.95238V44.0476C0 47.316 2.68398 50 5.95238 50H44.0476C47.316 50 50 47.316 50 44.0476V5.95238C50 2.68398 47.316 0 44.0476 0H5.95238ZM5.95238 2.38095H44.0476C46.0173 2.38095 47.619 3.98268 47.619 5.95238V44.0476C47.619 46.0173 46.0173 47.619 44.0476 47.619H5.95238C3.98268 47.619 2.38095 46.0173 2.38095 44.0476V5.95238C2.38095 3.98268 3.98268 2.38095 5.95238 2.38095ZM23.8095 10.7143V23.8095H10.7143V26.1905H23.8095V39.2857H26.1905V26.1905H39.2857V23.8095H26.1905V10.7143H23.8095Z" fill="#9FA2BE"/>
</g>
<defs>
<filter id="filter0_d" x="0" y="0" width="50" height="52" filterUnits="userSpaceOnUse" color-interpolation-filters="sRGB">
<feFlood flood-opacity="0" result="BackgroundImageFix"/>
<feColorMatrix in="SourceAlpha" type="matrix" values="0 0 0 0 0 0 0 0 0 0 0 0 0 0 0 0 0 0 127 0"/>
<feOffset dy="2"/>
<feColorMatrix type="matrix" values="0 0 0 0 0 0 0 0 0 0 0 0 0 0 0 0 0 0 1 0"/>
<feBlend mode="normal" in2="BackgroundImageFix" result="effect1_dropShadow"/>
<feBlend mode="normal" in="SourceGraphic" in2="effect1_dropShadow" result="shape"/>
</filter>
</defs>
</svg>
