<svg height="496pt" viewBox="0 0 496 496.00572" width="496pt" xmlns="http://www.w3.org/2000/svg"><path d="m493.660156 402.351562-32-32c-3.128906-3.128906-8.183594-3.128906-11.3125 0l-10.34375 10.34375-60.6875-60.691406 42.34375-42.34375c2.289063-2.285156 2.976563-5.726562 1.738282-8.71875-1.242188-2.984375-4.160157-4.9375-7.394532-4.9375h-64c-2.117187 0-4.160156.84375-5.65625 2.347656l-2.34375 2.34375-20.6875-20.691406 82.34375-82.34375c.496094-.496094.921875-1.046875 1.265625-1.644531l88-152c1.808594-3.113281 1.304688-7.050781-1.21875-9.617187-2.519531-2.570313-6.429687-3.144532-9.589843-1.382813l-144 80c-.648438.359375-1.25.804687-1.769532 1.335937l-90.34375 90.34375-90.34375-90.34375c-.519531-.53125-1.121094-.976562-1.765625-1.335937l-144-80c-3.160156-1.753906-7.074219-1.179687-9.59375 1.382813-2.519531 2.566406-3.023437 6.503906-1.214843 9.617187l88 152c.34375.597656.773437 1.15625 1.261718 1.644531l82.34375 82.34375-20.6875 20.691406-2.34375-2.34375c-1.496094-1.503906-3.535156-2.347656-5.65625-2.347656h-64c-3.230468 0-6.152344 1.953125-7.390625 4.9375-1.242187 2.992188-.550781 6.433594 1.734375 8.71875l42.34375 42.34375-60.6875 60.691406-10.34375-10.34375c-3.128906-3.128906-8.183594-3.128906-11.3125 0l-32 32c-3.125 3.125-3.125 8.183594 0 11.308594l80 80c1.5625 1.5625 3.609375 2.34375 5.65625 2.34375 2.050782 0 4.097656-.78125 5.65625-2.34375l32-32c3.128906-3.125 3.128906-8.183594 0-11.308594l-10.34375-10.347656 60.6875-60.6875 42.34375 42.34375c1.527344 1.53125 3.578125 2.34375 5.65625 2.34375 1.03125 0 2.074219-.199218 3.066406-.605468 2.984376-1.242188 4.933594-4.160157 4.933594-7.394532v-64c0-2.117187-.839844-4.15625-2.34375-5.652344l-2.34375-2.347656 20.6875-20.6875 20.6875 20.6875-2.34375 2.347656c-1.503906 1.496094-2.34375 3.535157-2.34375 5.652344v64c0 3.234375 1.953125 6.152344 4.9375 7.394532.992188.40625 2.03125.605468 3.0625.605468 2.082032 0 4.128906-.8125 5.65625-2.34375l42.34375-42.34375 60.6875 60.6875-10.34375 10.347656c-3.125 3.125-3.125 8.183594 0 11.308594l32 32c1.5625 1.5625 3.609375 2.34375 5.65625 2.34375 2.050782 0 4.097656-.78125 5.65625-2.34375l80-80c3.128906-3.125 3.128906-8.183594 0-11.308594zm-88.96875-34.347656-36.6875 36.691406-12.6875-12.691406 36.6875-36.6875zm-55.824218-273.550781 117.699218-65.382813-72.960937 126.023438-81.601563 81.601562-20.6875-20.691406 82.34375-82.34375-11.3125-11.308594-82.34375 82.34375-20.6875-20.691406zm-164.863282 164.863281 20.6875 20.6875-20.6875 20.691406-20.6875-20.691406zm-80 96 36.6875 36.6875-12.6875 12.691406-36.6875-36.691406zm-16 121.378906-68.6875-68.691406 20.6875-20.6875 68.6875 68.6875zm-20.6875-84.691406 12.6875-12.6875 36.6875 36.6875-12.6875 12.691406zm84.6875-11.308594-36.6875-36.691406 12.6875-12.6875 36.6875 36.6875zm64 16-116.6875-116.691406h41.375l75.3125 75.3125zm0-64-20.6875-20.691406 20.6875-20.6875 20.6875 20.6875zm-113.597656-177.601562-72.960938-126.023438 117.695313 65.382813 185.550781 185.550781-20.6875 20.691406-178.34375-178.34375-11.3125 11.308594 178.34375 178.34375-20.6875 20.691406zm177.597656 200.222656 75.3125-75.3125h41.375l-116.6875 116.691406zm88-24 12.6875 12.6875-36.6875 36.691406-12.6875-12.691406zm11.3125 84.6875 36.6875-36.6875 12.6875 12.6875-36.6875 36.691406zm28.6875 60.691406-20.6875-20.691406 68.6875-68.6875 20.6875 20.6875zm0 0"/></svg>