<svg height="512pt" viewBox="0 -92 512 512" width="512pt" xmlns="http://www.w3.org/2000/svg"><path d="m512 86.316406c0-26.863281-21.855469-48.71875-48.71875-48.71875s-48.714844 21.855469-48.714844 48.71875c0 12.914063 5.058594 24.664063 13.292969 33.390625-14.644531 16.382813-35.910156 26.722657-59.558594 26.722657-38.28125 0-70.34375-27.0625-78.101562-63.054688 8.957031-8.839844 14.519531-21.109375 14.519531-34.65625 0-26.863281-21.855469-48.71875-48.71875-48.71875s-48.71875 21.855469-48.71875 48.71875c0 13.546875 5.566406 25.816406 14.519531 34.65625-7.757812 35.992188-39.820312 63.054688-78.101562 63.054688-23.648438 0-44.914063-10.339844-59.558594-26.722657 8.234375-8.726562 13.296875-20.476562 13.296875-33.390625 0-26.863281-21.855469-48.71875-48.71875-48.71875s-48.71875 21.855469-48.71875 48.71875c0 23.28125 16.417969 42.789063 38.28125 47.578125 5.183594 42.78125 16.164062 96.765625 39.390625 133.488281v44.980469c0 8.328125 6.75 15.082031 15.078125 15.082031h326.5c8.328125 0 15.078125-6.753906 15.078125-15.082031v-44.980469c23.226563-36.722656 34.207031-90.703124 39.390625-133.488281 21.863281-4.792969 38.28125-24.296875 38.28125-47.578125zm-67.277344 0c0-10.234375 8.324219-18.5625 18.558594-18.5625s18.5625 8.328125 18.5625 18.5625-8.328125 18.558594-18.5625 18.558594-18.558594-8.324219-18.558594-18.558594zm-207.285156-37.597656c0-10.234375 8.328125-18.5625 18.5625-18.5625s18.558594 8.328125 18.558594 18.5625-8.324219 18.558594-18.558594 18.558594-18.5625-8.324219-18.5625-18.558594zm-207.28125 37.597656c0-10.234375 8.328125-18.5625 18.5625-18.5625s18.558594 8.328125 18.558594 18.5625-8.324219 18.558594-18.558594 18.558594-18.5625-8.324219-18.5625-18.558594zm77.671875 210.96875v-19.308594h296.34375v19.308594zm303.136719-49.46875h-309.925782c-15.871093-26.921875-24.984374-64.742187-30.210937-98.875 19.425781 17.195313 44.949219 27.644532 72.871094 27.644532 50.125 0 92.523437-33.683594 105.769531-79.601563 2.136719.289063 4.316406.449219 6.53125.449219s4.394531-.160156 6.53125-.449219c13.246094 45.917969 55.644531 79.601563 105.769531 79.601563 27.929688 0 53.46875-10.457032 72.894531-27.667969-5.222656 34.128906-14.335937 71.945312-30.230468 98.898437zm0 0"/></svg>