<?xml version="1.0" encoding="utf-8"?>
<!-- Generator: Adobe Illustrator 21.0.2, SVG Export Plug-In . SVG Version: 6.00 Build 0)  -->
<svg version="1.1" id="Layer_1" xmlns="http://www.w3.org/2000/svg" xmlns:xlink="http://www.w3.org/1999/xlink" x="0px" y="0px"
	 viewBox="0 0 457 512" style="enable-background:new 0 0 457 512;" xml:space="preserve">
<g>
	<g>
		<path d="M307.4,475.5l-1.5-18.7c-23.4,9.3-48.8,14.6-75.5,14.6c-112.9,0-204.8-91.9-204.8-204.8S117.5,61.8,230.4,61.8
			c18,0,35.3,2.6,51.9,6.9c-0.2-2.3-0.7-4.5-0.7-6.9c0-6.6,0.8-13,1.9-19.2c-17.1-4-34.8-6.4-53.1-6.4C103.2,36.2,0,139.4,0,266.6
			S103.2,497,230.4,497c27.5,0,53.8-5.1,78.3-13.9C308.1,480.6,307.6,478.1,307.4,475.5z"/>
	</g>
</g>
<g>
	<g>
		<path d="M243.2,230.5V87.4h-25.6v143.1c-10.9,3.9-19.4,12.4-23.3,23.3h-91.9v25.6h91.9c5.3,14.9,19.4,25.6,36.1,25.6
			c21.2,0,38.4-17.2,38.4-38.4C268.8,249.9,258.1,235.8,243.2,230.5z M230.4,279.4c-7.1,0-12.8-5.7-12.8-12.8s5.7-12.8,12.8-12.8
			s12.8,5.7,12.8,12.8S237.5,279.4,230.4,279.4z"/>
	</g>
</g>
<g>
	<g>
		<path d="M374,2.1c-2.6,0-5,1.3-6.4,3.5l-30,48c-0.7,1.2-1.1,2.6-1.1,4l0,265.9l-30,0c-2,0-3.9,0.8-5.3,2.2
			c-1.4,1.4-2.2,3.3-2.2,5.3l0,22.5c0,4.1,3.4,7.5,7.5,7.5l45.1,0l0,85.2c-4.8,5.5-7.5,12.5-7.5,19.9c0,8,3.1,15.6,8.8,21.2
			c5.7,5.7,13.2,8.8,21.2,8.8c8,0,15.6-3.1,21.2-8.8c5.7-5.7,8.8-13.2,8.8-21.2c0-7.6-2.8-14.5-7.5-19.8l0-47.7c0,0,0,0,0,0l0-30
			l0-7.5l45,0c2,0,3.9-0.8,5.3-2.2c1.4-1.4,2.2-3.3,2.2-5.3V331c0-4.2-3.4-7.5-7.5-7.5l-30,0l0-265.9c0-1.4-0.4-2.8-1.1-4l-30-48
			C379,3.4,376.6,2.1,374,2.1z M389,466.1c0,4-1.6,7.8-4.4,10.6c-2.8,2.8-6.6,4.4-10.6,4.4c-4,0-7.8-1.6-10.6-4.4
			c-2.8-2.8-4.4-6.6-4.4-10.6c0-4,1.6-7.8,4.4-10.6c2.8-2.8,6.6-4.4,10.6-4.4C382.3,451.1,389,457.9,389,466.1z M381.5,437.1
			c-2.4-0.6-4.9-0.9-7.5-1c-2.6,0-5.1,0.3-7.5,0.9l0-5.3l15-15L381.5,437.1z M381.5,395.5l-15,15l0-8.8l15-15L381.5,395.5z
			 M381.5,365.4l-15,15l0-19.4l15,0L381.5,365.4z M434.1,338.5l0,7.5l-45.1,0h-75.1l0-7.5l30,0l60.1,0c0,0,0,0,0,0L434.1,338.5z
			 M396.5,59.8l0,263.7l-15,0l0-184.8c0-4.1-3.4-7.5-7.5-7.5c-4.2,0-7.5,3.4-7.5,7.5v184.8l-15,0V59.8l22.5-36L396.5,59.8z"/>
	</g>
</g>
</svg>
