<svg height="493pt" viewBox="-5 0 493 493.59368" width="493pt" xmlns="http://www.w3.org/2000/svg"><path d="m.296875 460.792969 6.398437 14.402343 229.601563-95.203124 40 4.800781 14.398437 44-19.199218 18.402343c-7.199219 6.398438-9.597656 16.796876-5.597656 26.398438l8 20 132.796874-52-7.199218-19.199219c-3.199219-9.601562-12-15.199219-22.398438-15.199219h-26.402344l-14.398437-34.402343 35.199219-17.597657c11.199218-5.601562 16-18.402343 12-29.601562l-45.597656-122.398438c-4.800782-12.800781-18.402344-18.402343-31.203126-14.402343 0 0-.796874 0-.796874.800781l-33.601563 14.398438-4.800781-12 18.402344-21.597657c12.796874-14.402343 20.796874-32 23.199218-51.199219l23.199219-28c15.199219-17.601562 12-44-5.601563-59.203124-3.199218-2.398438-6.398437-4.796876-9.597656-6.398438-8.800781-4-17.601562-4.800781-27.199218-2.398438l-2.402344-7.203124c-4-12.796876-18.398438-19.199219-30.398438-14.398438l-168.800781 60.800781c-12.800781 4.800781-19.199219 18.398438-14.398437 30.398438v.800781l4 10.398438c-20.800782 9.601562-30.402344 33.601562-23.203126 54.402343 5.601563 16 20 27.199219 36.800782 29.597657l37.601562 4c15.199219 11.203124 33.597656 18.402343 52 20l26.398438 2.402343 4.800781 12c-5.601563 3.199219-9.601563 8.800781-11.199219 16l-5.601562 27.199219-195.199219 79.199219 5.601563 15.199219 112-44.796876 27.199218 81.597657zm383.199219-33.597657 1.601562 4.796876-102.402344 40.800781-2.398437-4.800781c-.800781-3.199219 0-6.398438 1.601563-8.796876l27.199218-25.601562 34.398438-11.199219h32c4 0 6.402344 1.597657 8 4.800781zm-50.398438-19.203124-28.800781 9.601562-10.398437-30.398438c4.796874.796876 8.796874 0 12.796874-2.402343l13.601563-6.398438zm-21.601562-206.398438c4-1.601562 8.800781 0 10.402344 4l6.398437 16.800781-39.199219 12.800781 4.800782 15.199219 39.199218-12.800781 9.597656 25.601562-37.597656 12.796876 4.800782 15.203124 38.398437-12.800781 9.601563 25.597657-36.800782 12 4.800782 15.203124 37.597656-12.800781 4 10.398438c1.601562 4 0 8-4 9.601562l-63.199219 31.199219c-1.601563.800781-3.199219.800781-4.800781.800781l-54.398438-6.402343-29.601562-88.796876 5.601562-29.601562c.800782-2.398438 2.398438-4.800781 4.800782-5.601562zm-.800782-161.601562c12.800782 5.601562 19.203126 20.800781 13.601563 34.402343-.800781 2.398438-2.398437 4-4 6.398438l-9.601563 12c-.796874-8-2.398437-15.199219-4.796874-23.199219l-10.402344-31.199219c5.601562-.800781 10.402344 0 15.199218 1.597657zm-240 114.402343c-4.796874-13.601562.800782-28 13.601563-34.402343l11.199219 27.203124c4 9.597657 9.601562 19.199219 16 27.199219l-16.800782-1.601562c-11.199218-.800781-20.796874-8-24-18.398438zm113.601563 42.398438c-32.800781-3.199219-61.601563-24-73.601563-55.199219l-20.796874-52.800781c-1.601563-4 0-8.800781 4-10.398438l168.796874-60.800781c2.402344-.800781 4-.800781 6.402344 0 1.597656.800781 3.199219 2.398438 4 4.800781l17.597656 52.800781c9.601563 29.597657 3.203126 61.597657-16.796874 84.796876l-24.800782 28.800781 7.199219 19.199219-28.800781 12-8-20zm-51.199219 116 18.398438-7.199219 20 60.800781 15.199218-4.800781-20.796874-62.398438 32-12.800781 27.199218 80.800781-64.800781 27.199219zm0 0"/><path d="m395.496094 139.992188v8h16v-8c0-22.398438 17.601562-40 40-40v-16c-22.398438 0-40-17.597657-40-40v-8h-16v8c0 22.402343-17.597656 40-40 40v16c22.402344 0 40 17.601562 40 40zm8-67.199219c4.800781 8 11.199218 14.402343 19.199218 19.199219-8 4.800781-14.398437 11.203124-19.199218 19.203124-4.800782-8-11.199219-14.402343-19.199219-19.203124 8-4.796876 14.398437-11.199219 19.199219-19.199219zm0 0"/><path d="m43.496094 299.992188v8h16v-8c0-22.398438 17.601562-40 40-40v-16c-22.398438 0-40-17.597657-40-40v-8h-16v8c0 22.402343-17.597656 40-40 40v16c22.402344 0 40 17.601562 40 40zm8-67.199219c4.800781 8 11.199218 14.402343 19.199218 19.199219-8 4.800781-14.398437 11.203124-19.199218 19.203124-4.800782-8-11.199219-14.402343-19.199219-19.203124 8-4.796876 14.398437-11.199219 19.199219-19.199219zm0 0"/><path d="m443.496094 203.992188v-8h-16v8c0 22.402343-17.597656 40-40 40v16c22.402344 0 40 17.601562 40 40v8h16v-8c0-22.398438 17.601562-40 40-40v-16c-22.398438 0-40-17.597657-40-40zm-8 67.203124c-4.800782-8-11.199219-14.402343-19.199219-19.203124 8-4.796876 14.398437-11.199219 19.199219-19.199219 4.800781 8 11.199218 14.402343 19.199218 19.199219-8 4.800781-14.398437 11.203124-19.199218 19.203124zm0 0"/><path d="m237.898438 142.394531 11.199218 11.199219c44-44 3.199219-111.199219.800782-113.601562l-13.601563 8.800781c.800781 0 36.800781 58.402343 1.601563 93.601562zm0 0"/></svg>