<?xml version="1.0" encoding="utf-8"?>
<!-- Generator: Adobe Illustrator 21.0.2, SVG Export Plug-In . SVG Version: 6.00 Build 0)  -->
<svg version="1.1" id="Capa_1" xmlns="http://www.w3.org/2000/svg" xmlns:xlink="http://www.w3.org/1999/xlink" x="0px" y="0px"
	 viewBox="0 0 241.2 227.9" style="enable-background:new 0 0 241.2 227.9;" xml:space="preserve">
<style type="text/css">
	.st0{fill:#FFFFFF;}
</style>
<g>
	<path class="st0" d="M80.8,87.8c-3.9-4.1-10.4-4.4-14.6-0.5l-33.4,31.9l-14.1-14.6c-3.9-4.1-10.4-4.4-14.6-0.5
		c-4,4.2-4,10.9,0,15.2l21.4,21.9c1.9,2.1,4.5,3.2,7.3,3.1c2.8,0,5.4-1.2,7.3-3.1l40.8-38.7c4-3.7,4.3-10,0.6-14
		C81.2,88.2,81,88,80.8,87.8z"/>
	<path class="st0" d="M230.8,110.3H110.6c-5.8,0-10.4,4.7-10.4,10.4s4.7,10.4,10.4,10.4h120.2c5.8,0,10.4-4.7,10.4-10.4
		S236.6,110.3,230.8,110.3z"/>
	<path class="st0" d="M80.8,4.3c-3.9-4.1-10.4-4.4-14.6-0.5L32.8,35.6L18.7,21C14.7,16.8,8.2,16.6,4,20.5c-4,4.2-4,10.9,0,15.2
		l21.4,21.9c1.9,2.1,4.5,3.2,7.3,3.1c2.8,0,5.4-1.2,7.3-3.1l40.8-38.7c4-3.7,4.3-10,0.6-14C81.2,4.7,81,4.4,80.8,4.3z"/>
	<path class="st0" d="M230.8,26.7H110.6c-5.8,0-10.4,4.7-10.4,10.4s4.7,10.4,10.4,10.4h120.2c5.8,0,10.4-4.7,10.4-10.4
		S236.6,26.7,230.8,26.7z"/>
	<path class="st0" d="M80.8,171.4c-3.9-4.1-10.4-4.4-14.6-0.5l-33.4,31.9l-14.1-14.6c-3.9-4.1-10.4-4.4-14.6-0.5
		c-4,4.2-4,10.9,0,15.2l21.4,21.9c1.9,2.1,4.5,3.2,7.3,3.1c2.8,0,5.4-1.2,7.3-3.1l40.8-38.7c4-3.7,4.3-10,0.6-14
		C81.2,171.8,81,171.6,80.8,171.4z"/>
	<path class="st0" d="M230.8,193.9H110.6c-5.8,0-10.4,4.7-10.4,10.4s4.7,10.4,10.4,10.4h120.2c5.8,0,10.4-4.7,10.4-10.4
		S236.6,193.9,230.8,193.9z"/>
</g>
</svg>
