<?xml version="1.0" encoding="utf-8"?>
<!-- Generator: Adobe Illustrator 21.0.2, SVG Export Plug-In . SVG Version: 6.00 Build 0)  -->
<svg version="1.1" id="Слой_1" xmlns="http://www.w3.org/2000/svg" xmlns:xlink="http://www.w3.org/1999/xlink" x="0px" y="0px"
	 viewBox="0 0 496 496" style="enable-background:new 0 0 496 496;" xml:space="preserve">
<style type="text/css">
	.st0{fill:#FFFFFF;}
</style>
<path class="st0" d="M493.7,402.3l-32-32c-3.1-3.1-8.2-3.1-11.3,0L440,380.7L379.3,320l42.3-42.3c2.3-2.3,3-5.7,1.7-8.7
	c-1.2-3-4.2-4.9-7.4-4.9h-64c-2.1,0-4.2,0.8-5.7,2.3l-2.3,2.3L323.3,248l82.3-82.3c0.5-0.5,0.9-1,1.3-1.6l88-152
	c1.8-3.1,1.3-7.1-1.2-9.6c-2.5-2.6-6.4-3.1-9.6-1.4l-144,80c-0.6,0.4-1.2,0.8-1.8,1.3L248,172.7l-90.3-90.3c-0.5-0.5-1.1-1-1.8-1.3
	L11.9,1C8.7-0.7,4.8-0.2,2.3,2.4C-0.2,5-0.7,8.9,1.1,12l88,152c0.3,0.6,0.8,1.2,1.3,1.6l82.3,82.3L152,268.7l-2.3-2.3
	c-1.5-1.5-3.5-2.3-5.7-2.3H80c-3.2,0-6.2,2-7.4,4.9c-1.2,3-0.6,6.4,1.7,8.7l42.3,42.3L56,380.7l-10.3-10.3c-3.1-3.1-8.2-3.1-11.3,0
	l-32,32c-3.1,3.1-3.1,8.2,0,11.3l80,80c1.6,1.6,3.6,2.3,5.7,2.3c2.1,0,4.1-0.8,5.7-2.3l32-32c3.1-3.1,3.1-8.2,0-11.3L115.3,440
	l60.7-60.7l42.3,42.3c1.5,1.5,3.6,2.3,5.7,2.3c1,0,2.1-0.2,3.1-0.6c3-1.2,4.9-4.2,4.9-7.4v-64c0-2.1-0.8-4.2-2.3-5.7l-2.3-2.3
	l20.7-20.7l20.7,20.7l-2.3,2.3c-1.5,1.5-2.3,3.5-2.3,5.7v64c0,3.2,2,6.2,4.9,7.4c1,0.4,2,0.6,3.1,0.6c2.1,0,4.1-0.8,5.7-2.3
	l42.3-42.3l60.7,60.7l-10.3,10.3c-3.1,3.1-3.1,8.2,0,11.3l32,32c1.6,1.6,3.6,2.3,5.7,2.3c2.1,0,4.1-0.8,5.7-2.3l80-80
	C496.8,410.5,496.8,405.5,493.7,402.3z M404.7,368L368,404.7L355.3,392l36.7-36.7L404.7,368z M348.9,94.5l117.7-65.4l-73,126
	L312,236.7L291.3,216l82.3-82.3l-11.3-11.3L280,204.7L259.3,184L348.9,94.5z M184,259.3l20.7,20.7L184,300.7L163.3,280L184,259.3z
	 M104,355.3l36.7,36.7L128,404.7L91.3,368L104,355.3z M88,476.7L19.3,408L40,387.3l68.7,68.7L88,476.7z M67.3,392L80,379.3
	l36.7,36.7L104,428.7L67.3,392z M152,380.7L115.3,344l12.7-12.7l36.7,36.7L152,380.7z M216,396.7L99.3,280h41.4l75.3,75.3V396.7z
	 M216,332.7L195.3,312l20.7-20.7l20.7,20.7L216,332.7z M102.4,155.1l-73-126l117.7,65.4L332.7,280L312,300.7L133.7,122.4l-11.3,11.3
	L300.7,312L280,332.7L102.4,155.1z M280,355.3l75.3-75.3h41.4L280,396.7V355.3z M368,331.3l12.7,12.7L344,380.7L331.3,368L368,331.3
	z M379.3,416l36.7-36.7l12.7,12.7L392,428.7L379.3,416z M408,476.7L387.3,456l68.7-68.7l20.7,20.7L408,476.7z"/>
</svg>
