<?xml version="1.0" encoding="utf-8"?>
<!-- Generator: Adobe Illustrator 21.0.2, SVG Export Plug-In . SVG Version: 6.00 Build 0)  -->
<svg version="1.1" id="Capa_1" xmlns="http://www.w3.org/2000/svg" xmlns:xlink="http://www.w3.org/1999/xlink" x="0px" y="0px"
	 viewBox="0 0 19.1 25.2" style="enable-background:new 0 0 19.1 25.2;" xml:space="preserve">
<style type="text/css">
	.st0{fill:#E8E8E8;}
</style>
<path class="st0" d="M17.4,10h-0.7V8.6c0-3.9-3.2-7.1-7.1-7.1S2.4,4.7,2.4,8.6V10H1.7C1.3,10,1,10.3,1,10.7v12.8
	c0,0.4,0.3,0.7,0.7,0.7h15.6c0.4,0,0.7-0.3,0.7-0.7V10.7C18.1,10.3,17.7,10,17.4,10L17.4,10z M3.8,8.6c0-3.1,2.6-5.7,5.7-5.7
	s5.7,2.6,5.7,5.7V10H3.8V8.6z M16.6,22.8H2.4V11.4h14.2V22.8z"/>
<path class="st0" d="M8.8,16.9V20h1.4v-3.1c0.4-0.2,0.7-0.7,0.7-1.2c0-0.8-0.6-1.4-1.4-1.4c-0.8,0-1.4,0.6-1.4,1.4
	C8.1,16.2,8.4,16.7,8.8,16.9z"/>
</svg>
